<?xml version="1.0" encoding="UTF-8"?>
<svg id="Layer_2" data-name="Layer 2" xmlns="http://www.w3.org/2000/svg" viewBox="0 0 1165.12 336.34">
  <defs>
    <style>
      .cls-1 {
        fill: #395542;
        stroke-width: 0px;
      }
    </style>
  </defs>
  <g id="Layer_1-2" data-name="Layer 1">
    <g>
      <g>
        <path class="cls-1" d="M334.52,162.35c-8.79-32.02-17.47-64.09-26.02-96.16-1.59-5.99-4.88-9.85-9.92-12.21l-77.37,91.47c-2.68-10.58-5.33-21.17-7.93-31.76-.33-1.36-.95-2.01-2.21-2.36-2.91-.81-5.79-1.74-8.59-2.6-.12-1.65-.17-3.19-.37-4.71-1.13-8.82-8.47-16.41-16.86-17.49-7.11-.91-12.9,1.52-17.45,7.12-1.07,1.32-2.12,2.66-3.18,3.99-1.9-.82-3.69-1.65-5.52-2.37-3.72-1.46-7.49-1.79-11.33-.85-9.73,2.39-15.95,12.35-14.22,22.8.47,2.81,1.48,5.41,2.97,7.93-2.28,2.28-4.44,4.51-6.67,6.66-.82.79-1.03,1.59-.74,2.75,2.94,11.64,5.85,23.29,8.73,34.94.11.43.25.79.44,1.1l-46.9-14.79-3.21-1.01L3.28,143.92c-3.92,5.18-4.07,10.12-1.82,16.58,14.7,42.19,29.23,84.4,43.25,126.81,3.11,9.45,8.53,14.53,17.86,16.75,21.2,4.99,42.3,10.41,63.48,15.48,22.75,5.46,45.52,10.74,68.32,16.02,3.98.93,8.03,1.34,11.47-.6l-23.65-150.19c1.03.32,2.06.64,3.1.95,1.05.32,1.79.11,2.55-.66,1.2-1.21,2.39-2.41,3.59-3.61l.18,1.13,23.7,150.52c.93-.53,1.82-1.22,2.65-2.13,8.03-8.79,117.37-165.56,116.55-168.61ZM138.3,105.75c3.46-7,11.98-10.36,19.34-7.57,2.15.82,4.25,1.78,6.35,2.73,1.11.51,1.94.34,2.69-.66,1.32-1.75,2.65-3.51,4.1-5.15,4.36-4.91,9.8-6.65,16.08-4.85,6.23,1.78,10.29,6.14,11.92,12.74,1.27,5.16.25,9.95-2.61,14.19-6.31,9.36-12.68,18.66-19.03,27.99-.14.21-.31.4-.51.66-3.27-1.71-6.51-3.4-9.75-5.1-6.95-3.64-13.89-7.3-20.84-10.94-8.77-4.59-12.16-15.11-7.74-24.05ZM182.92,181.61c-13.71-4.21-27.41-8.43-41.12-12.63-.59-.18-1.01-.39-1.19-1.13-2.57-10.41-5.19-20.82-7.79-31.23-.04-.15-.06-.3-.13-.66.85.25,1.55.45,2.25.67,13.32,4.09,26.64,8.19,39.96,12.28.64.19,1.06.42,1.25,1.21,2.55,10.34,5.15,20.67,7.73,31,.05.22.09.44.15.78-.43-.11-.78-.18-1.11-.28ZM187.85,180.47c-.2.2-.42.38-.78.7-.58-2.33-1.12-4.46-1.65-6.6-2.09-8.35-4.17-16.71-6.28-25.05-.18-.71-.13-1.18.4-1.71,10.18-10.21,20.34-20.44,30.51-30.67.2-.2.42-.39.71-.65.12.39.23.66.3.95,2.57,10.26,5.13,20.53,7.72,30.78,0,.03.01.05.02.08l-6.02,7.12c-8.31,8.35-16.62,16.7-24.93,25.05Z"/>
        <path class="cls-1" d="M159.11,66.95l95.88,28.14,41.35-50.02c-1.2-.56-2.49-1.04-3.88-1.43C243.35,29.52,194.26,15.29,145.19,1.04c-5.58-1.62-10.41-1.38-14.79.98l28.16,63.69.55,1.24Z"/>
        <path class="cls-1" d="M91.22,146.67l58.85-77.9.67-.88L122.58,4.19c-2.16,1.16-4.21,2.84-6.18,5.06-16.25,18.37-32.96,36.32-49.39,54.54-20.91,23.19-41.52,46.63-62.68,69.58-.61.65-1.15,1.3-1.63,1.94l84.9,10.89,3.63.47Z"/>
      </g>
      <path class="cls-1" d="M498.46,169.09v109.62c0,7.1-.52,14.07-1.56,20.91-1.04,6.84-4.76,12.94-11.17,18.31-4.85,4.16-10.3,7.1-16.36,8.83-6.06,1.73-12.29,2.77-18.7,3.12-1.39.17-2.77.26-4.16.26h-4.15c-1.91,0-3.85-.04-5.85-.13-1.99-.09-4.03-.22-6.1-.39-10.22-1.04-19.74-4.02-28.57-8.96-8.83-4.93-13.68-13.46-14.54-25.58l35.06.26c.69,4.15,2.86,7.23,6.49,9.22,3.64,1.99,7.53,3.07,11.69,3.25h1.56c.86,0,1.77-.04,2.72-.13.95-.09,1.95-.22,2.99-.39,1.21-.18,2.38-.35,3.51-.52,1.12-.18,2.12-.44,2.99-.78,5.54-2.25,9.17-5.89,10.91-10.91,1.73-5.03,2.68-10.3,2.86-15.84v-15.84c-4.5,6.41-9.78,11.26-15.84,14.54-6.06,3.28-13.07,4.93-21.04,4.93-12.64,0-23.2-3.59-31.69-10.78-8.49-7.19-14.11-16.84-16.88-28.96-.52-2.25-.95-4.67-1.3-7.27-.35-2.6-.61-5.19-.78-7.79v-6.62c0-.95.08-1.86.26-2.73.69-11.26,3.81-21.87,9.35-31.82,5.54-9.96,14.11-16.41,25.71-19.35,1.04-.34,2.08-.56,3.12-.65,1.04-.08,2.16-.21,3.38-.39,1.04-.17,2.08-.26,3.12-.26h3.12c7.79,0,15.23,1.78,22.33,5.32,7.1,3.55,12.81,8.87,17.14,15.97v-18.44h30.39ZM461.32,201.84c-5.37-5.37-11.34-8.32-17.92-8.84-.35-.17-.74-.26-1.17-.26h-2.21c-6.41.18-12.29,2.64-17.66,7.41s-8.23,11.83-8.57,21.19v2.08c-.18.35-.26.7-.26,1.04v1.04c0,8.32,2.38,15.47,7.14,21.45,4.76,5.98,11.56,8.97,20.39,8.97,9.52,0,16.62-2.99,21.3-8.97,4.67-5.98,7.01-13.39,7.01-22.23,0-9.88-2.69-17.5-8.05-22.88Z"/>
      <path class="cls-1" d="M537.02,106.16h.65c4.67.35,8.92,2.08,12.73,5.19,3.81,3.12,5.71,7.71,5.71,13.76s-1.91,10.62-5.71,13.73c-3.81,3.11-8.05,4.84-12.73,5.18h-1.3c-4.85,0-9.27-1.55-13.25-4.66-3.98-3.11-5.97-7.86-5.97-14.25s1.99-11.17,5.97-14.28c3.98-3.12,8.4-4.67,13.25-4.67h.65ZM521.31,169.09h31.95v111.22h-31.95v-111.22Z"/>
      <path class="cls-1" d="M583.9,194.34h-14.8v-25.25h14.8v-24.94c0-8.66,1.3-16.37,3.9-23.12,2.6-6.75,8.31-11.78,17.14-15.07,1.73-.52,3.51-1.04,5.32-1.56s3.68-.86,5.59-1.04c1.38-.34,2.77-.56,4.15-.65,1.38-.09,2.77-.13,4.16-.13,1.56,0,3.11.09,4.67.26,1.56.18,3.12.35,4.68.52,1.56.34,3.11.65,4.67.91,1.56.26,3.12.56,4.68.91v25.74c-1.04-.52-2.25-1.04-3.64-1.56s-2.77-.86-4.15-1.04c-.87-.17-1.73-.3-2.6-.39-.87-.09-1.65-.13-2.34-.13h-1.56c-1.73.18-3.38.61-4.93,1.3-1.56.69-2.86,1.64-3.9,2.86-1.73,2.08-2.99,4.54-3.77,7.4-.78,2.86-1.26,5.84-1.43,8.96v5.45c.17,1.21.3,2.34.39,3.38s.22,2.08.39,3.12c0,1.73.08,3.33.26,4.8.17,1.47.26,2.81.26,4.02h20.52v25.25h-20.52v85.97h-31.95v-85.97Z"/>
      <path class="cls-1" d="M668.57,194.34h-16.1v-25.25h16.1v-36.62h31.95v36.62h15.32v25.25h-15.32v85.97h-31.95v-85.97Z"/>
      <path class="cls-1" d="M758.69,247.76c.69,4.33,2.9,7.79,6.62,10.39,3.72,2.6,7.75,4.06,12.08,4.41h1.56c.69,0,1.38-.04,2.08-.13.69-.08,1.38-.21,2.08-.39,1.38-.17,2.68-.48,3.9-.91s2.25-.91,3.12-1.43c1.73-.86,3.03-2.08,3.9-3.64.86-1.56,1.3-3.2,1.3-4.93,0-.34-.04-.74-.13-1.17s-.13-.91-.13-1.43c-.18-.34-.3-.74-.39-1.17s-.22-.82-.39-1.17c-.87-1.9-2.73-3.59-5.59-5.06-2.86-1.47-5.93-2.73-9.22-3.77-2.42-1.04-4.81-1.9-7.14-2.59-2.34-.69-4.2-1.3-5.58-1.82-.35-.17-.65-.3-.91-.39s-.56-.22-.91-.39c-6.23-2.42-12.12-5.75-17.66-9.99-5.54-4.24-8.92-9.99-10.13-17.26,0-.34-.04-.69-.13-1.04s-.13-.69-.13-1.04c0-.17-.04-.43-.13-.78-.09-.34-.13-.69-.13-1.04,0-6.75,2.16-12.98,6.49-18.69,4.33-5.71,9.61-9.86,15.84-12.46,2.42-1.04,4.98-1.9,7.66-2.6,2.68-.69,5.41-1.12,8.18-1.3,1.21-.17,2.42-.3,3.64-.39,1.21-.09,2.42-.13,3.64-.13,1.04,0,2.03.04,2.98.13.95.09,1.86.13,2.73.13,7.62.87,14.85,3.12,21.69,6.76,6.84,3.64,12.07,8.84,15.71,15.61l-23.63,11.69c-1.21-3.46-3.42-6.28-6.62-8.44-3.2-2.16-6.62-3.42-10.26-3.77-.35-.17-.74-.26-1.17-.26h-1.42c-.7,0-1.43.04-2.21.13s-1.52.22-2.21.39c-1.21.34-2.38.74-3.5,1.17-1.13.43-2.21,1-3.25,1.68-.7.52-1.34,1.26-1.95,2.21-.61.95-1.08,1.86-1.43,2.72-.18.52-.3,1-.39,1.43s-.13.82-.13,1.17.04.7.13,1.04.13.69.13,1.04c.34.86.74,1.64,1.17,2.34s.82,1.3,1.17,1.81c1.56,1.73,3.98,3.29,7.27,4.67,3.29,1.38,6.75,2.68,10.39,3.89,2.6.69,5.11,1.43,7.53,2.2,2.42.78,4.5,1.52,6.23,2.2.52.18.95.35,1.3.52.34.18.69.35,1.04.52,6.41,2.59,11.43,6.53,15.06,11.8,3.64,5.28,5.89,10.77,6.75,16.47,0,.69.04,1.43.13,2.2.09.78.13,1.52.13,2.2,0,5.36-1.43,10.55-4.29,15.57-2.86,5.02-7.31,9.08-13.37,12.19-2.77,1.04-5.93,1.95-9.48,2.73-3.55.78-7.23,1.34-11.04,1.69-1.38.17-2.77.3-4.16.39-1.38.08-2.77.13-4.16.13h-1.3c-9.18-.18-17.88-1.99-26.1-5.45-8.22-3.46-14.15-9.34-17.79-17.65l24.93-12.98Z"/>
      <path class="cls-1" d="M1164.81,217.39c.21-21.45-14.64-42.33-34.16-48.25-17.42-5.24-43.58,2.04-63.54,3.17-17.44-4.19-35.07-8.12-53.01-7.73,0,0-.3-.07-.3-.07-3.51-.01-6.84,1.02-10.37.79-.91.13-1.77,1.05-2.64.29-13.7,2.02-28.35,4.51-38.7,15.07-7.85,8.6-20.37,13.3-29.18,19.62-6.56-26.49-40.56-36.62-63.43-27.8,16.32,8.27,8.76,4.14,22.45,15.32,3.34,3.42,17.17,12.43,18.5,19.18-15.13,4.34-37.35,9.69-52.79,9.21-1.36,0-2.42-.06-1.91-2.11,3.4-13.51,13.7-22.66,24.37-23.95.75-.1,1.74.27,2.27-.99-8.64-6.18-17.97-9.07-28.44-7.65-14.52,11.32-19.93,30.91-18.73,49.32h0c1.29,26.83,22.07,49.79,47.95,49.32-.23,0-.45,0-.68-.01,1.27.03,3.19-.25,4.45-.2-.94-.01-2.81.12-3.77.21,21.27.11,37.87-6.91,49.76-26.44l-9.06-4.71c.33.58.62,1.16.85,1.75-.24-.59-.52-1.18-.86-1.75-2.51-1.3-7.99-4.15-10.45-5.43-3.55.3-6.29,2.63-8.77,5.06-12.45,12.75-41.36,11.38-48.87-10.38,26.27-3.96,57.14-10.1,80.28-23.9q-.24-1.79,0,0c2.98-1.62,5.93-3.35,8.82-5.14,0,0,0,0,0,0,12.17-7.27,23.36-15.76,35.51-23.11-.51,2.5-3.39,3.47-4.92,4.45-10.99,8.18-19.99,18.72-30.36,27.73-6.48,13.67,5.97,39.45,17.19,48.36,7.61,6.5,22.89,15.1,32.49,12.06,8.56-6.95,16.14-15.36,19.38-26.66-56.43,27.23-67.18-73.16-7.89-61.31,27.7,9.42,25.25,45.16,13.27,66.52-5.41,10.52-14.26,15.81-23.72,21.83,4.75.95,9.22.48,14.84-1.02-.16.04-.32.06-.48.1,43.81-10.63,55.48-75.44,16.42-102.2,10.41,2.18,38.63,9.8,38.05,21.92-.06,26.2-.66,52.57.49,78.66h4.75q-1.62-.97,0,0h11.06q1.59-.92,0,0h12.38c.04-1.71-.12-49.35.11-49.58,0-16.08,5.93-34.55,24.64-32.81,17.76-.59,17.14,15.72,17.88,29.65,0,.53,0,1.01,0,1.46,0,0,0,51.28,0,51.28h12.44q-3.28-1.92,0,0c6.52-.61,12.81,2.76,15.76-5.89h0c1.87-17.49.4-35.6.65-53.26Z"/>
    </g>
  </g>
</svg>